name rise49.8558peak67.6521fall70.3087.mot
datacolumns 19
datarows 15
range 1.11833000000000 1.14166300000000
endheader
time	ground_force1_vx	ground_force1_vy	ground_force1_vz	ground_force1_px	ground_force1_py	ground_force1_pz	ground_force2_vx	ground_force2_vy	ground_force2_vz	ground_force2_px	ground_force2_py	ground_force2_pz	ground_torque1_x	ground_torque1_y	ground_torque1_z	ground_torque2_x	ground_torque2_y	ground_torque2_z	
1.11833000000000	3.63318500000000	691.93419700000004	52.73664100000000	0.21541500000000	0.00000000000000	0.12520300000000	0.00000000000000	0.00000000000000	0.00000000000000	0.00000000000000	0.00000000000000	0.00000000000000	0.00000000000000	20.35761600000000	0.00000000000000	0.00000000000000	0.00000000000000	0.00000000000000	
1.12000100000000	3.26074300000000	692.12566400000003	52.94703300000000	0.21451700000000	0.00000000000000	0.12531900000000	0.00000000000000	0.00000000000000	0.00000000000000	0.00000000000000	0.00000000000000	0.00000000000000	0.00000000000000	20.45668700000000	0.00000000000000	0.00000000000000	0.00000000000000	0.00000000000000	
1.12166700000000	2.87573100000000	692.35765200000003	53.15811800000000	0.21360300000000	0.00000000000000	0.12543300000000	0.00000000000000	0.00000000000000	0.00000000000000	0.00000000000000	0.00000000000000	0.00000000000000	0.00000000000000	20.55879900000000	0.00000000000000	0.00000000000000	0.00000000000000	0.00000000000000	
1.12333400000000	2.47768500000000	692.62983299999996	53.36948100000000	0.21267300000000	0.00000000000000	0.12554600000000	0.00000000000000	0.00000000000000	0.00000000000000	0.00000000000000	0.00000000000000	0.00000000000000	0.00000000000000	20.66391000000000	0.00000000000000	0.00000000000000	0.00000000000000	0.00000000000000	
1.12500000000000	2.06617300000000	692.94192299999997	53.58073000000000	0.21172600000000	0.00000000000000	0.12565700000000	0.00000000000000	0.00000000000000	0.00000000000000	0.00000000000000	0.00000000000000	0.00000000000000	0.00000000000000	20.77198900000000	0.00000000000000	0.00000000000000	0.00000000000000	0.00000000000000	
1.12666600000000	1.64079500000000	693.29368199999999	53.79149800000000	0.21076400000000	0.00000000000000	0.12576700000000	0.00000000000000	0.00000000000000	0.00000000000000	0.00000000000000	0.00000000000000	0.00000000000000	0.00000000000000	20.88301000000000	0.00000000000000	0.00000000000000	0.00000000000000	0.00000000000000	
1.12833300000000	1.20118600000000	693.68492600000002	54.00144300000000	0.20978700000000	0.00000000000000	0.12587400000000	0.00000000000000	0.00000000000000	0.00000000000000	0.00000000000000	0.00000000000000	0.00000000000000	0.00000000000000	20.99695800000000	0.00000000000000	0.00000000000000	0.00000000000000	0.00000000000000	
1.12999500000000	0.74701300000000	694.11552099999994	54.21025300000000	0.20879600000000	0.00000000000000	0.12597900000000	0.00000000000000	0.00000000000000	0.00000000000000	0.00000000000000	0.00000000000000	0.00000000000000	0.00000000000000	21.11382600000000	0.00000000000000	0.00000000000000	0.00000000000000	0.00000000000000	
1.13165800000000	0.27798000000000	694.58538799999997	54.41763900000000	0.20779100000000	0.00000000000000	0.12608300000000	0.00000000000000	0.00000000000000	0.00000000000000	0.00000000000000	0.00000000000000	0.00000000000000	0.00000000000000	21.23361100000000	0.00000000000000	0.00000000000000	0.00000000000000	0.00000000000000	
1.13333400000000	-0.20617800000000	695.09450600000002	54.62334300000000	0.20677500000000	0.00000000000000	0.12618400000000	0.00000000000000	0.00000000000000	0.00000000000000	0.00000000000000	0.00000000000000	0.00000000000000	0.00000000000000	21.35631800000000	0.00000000000000	0.00000000000000	0.00000000000000	0.00000000000000	
1.13499600000000	-0.70568600000000	695.64291400000002	54.82713300000000	0.20574700000000	0.00000000000000	0.12628200000000	0.00000000000000	0.00000000000000	0.00000000000000	0.00000000000000	0.00000000000000	0.00000000000000	0.00000000000000	21.48195700000000	0.00000000000000	0.00000000000000	0.00000000000000	0.00000000000000	
1.13665800000000	-1.22073900000000	696.23070800000005	55.02880500000000	0.20470800000000	0.00000000000000	0.12637900000000	0.00000000000000	0.00000000000000	0.00000000000000	0.00000000000000	0.00000000000000	0.00000000000000	0.00000000000000	21.61054400000000	0.00000000000000	0.00000000000000	0.00000000000000	0.00000000000000	
1.13833100000000	-1.75149200000000	696.85804299999995	55.22818400000000	0.20366000000000	0.00000000000000	0.12647200000000	0.00000000000000	0.00000000000000	0.00000000000000	0.00000000000000	0.00000000000000	0.00000000000000	0.00000000000000	21.74209800000000	0.00000000000000	0.00000000000000	0.00000000000000	0.00000000000000	
1.13999800000000	-2.29806800000000	697.52513199999999	55.42512400000000	0.20260300000000	0.00000000000000	0.12656400000000	0.00000000000000	0.00000000000000	0.00000000000000	0.00000000000000	0.00000000000000	0.00000000000000	0.00000000000000	21.87663900000000	0.00000000000000	0.00000000000000	0.00000000000000	0.00000000000000	
1.14166300000000	-2.86055300000000	698.23224600000003	55.61950600000000	0.20153800000000	0.00000000000000	0.12665200000000	0.00000000000000	0.00000000000000	0.00000000000000	0.00000000000000	0.00000000000000	0.00000000000000	0.00000000000000	22.01419300000000	0.00000000000000	0.00000000000000	0.00000000000000	0.00000000000000	
